<svg width="20" height="20" viewBox="0 0 20 20" xmlns="http://www.w3.org/2000/svg">
<path fill-rule="evenodd" clip-rule="evenodd" d="M4.35001 8.75C4.35001 6.40279 6.2528 4.5 8.60001 4.5C10.9472 4.5 12.85 6.40279 12.85 8.75C12.85 11.0972 10.9472 13 8.60001 13C6.2528 13 4.35001 11.0972 4.35001 8.75ZM8.60001 2.5C5.14823 2.5 2.35001 5.29822 2.35001 8.75C2.35001 12.2018 5.14823 15 8.60001 15C10.0511 15 11.3866 14.5055 12.4474 13.6758L15.9284 17.1569C16.319 17.5474 16.9521 17.5474 17.3426 17.1569C17.7332 16.7663 17.7332 16.1332 17.3426 15.7426L13.8074 12.2074C14.4662 11.2172 14.85 10.0284 14.85 8.75C14.85 5.29822 12.0518 2.5 8.60001 2.5Z"/>
</svg>
