<svg width="48" height="48" viewBox="0 0 48 48" xmlns="http://www.w3.org/2000/svg">
<path fill-rule="evenodd" clip-rule="evenodd" d="M6 19.25C5.80109 19.25 5.61032 19.329 5.46967 19.4697C5.32902 19.6103 5.25 19.8011 5.25 20V30C5.25 30.1989 5.32902 30.3897 5.46967 30.5303C5.61032 30.671 5.80109 30.75 6 30.75H12.75V19.25H6ZM6 16.75H14C14.6904 16.75 15.25 17.3096 15.25 18V32C15.25 32.6904 14.6904 33.25 14 33.25H6C5.13805 33.25 4.31139 32.9076 3.7019 32.2981C3.09241 31.6886 2.75 30.862 2.75 30V20C2.75 19.1381 3.09241 18.3114 3.7019 17.7019C4.31139 17.0924 5.13805 16.75 6 16.75Z"/>
<path fill-rule="evenodd" clip-rule="evenodd" d="M42 30.75C42.1989 30.75 42.3897 30.671 42.5303 30.5303C42.671 30.3897 42.75 30.1989 42.75 30V20C42.75 19.8011 42.671 19.6103 42.5303 19.4697C42.3897 19.329 42.1989 19.25 42 19.25H35.25V30.75H42ZM44.2981 32.2981C43.6886 32.9076 42.862 33.25 42 33.25H34C33.3096 33.25 32.75 32.6904 32.75 32V18C32.75 17.3096 33.3096 16.75 34 16.75H42C42.862 16.75 43.6886 17.0924 44.2981 17.7019C44.9076 18.3114 45.25 19.1381 45.25 20V30C45.25 30.862 44.9076 31.6886 44.2981 32.2981Z"/>
<path fill-rule="evenodd" clip-rule="evenodd" d="M24 5.25C20.3533 5.25 16.8559 6.69865 14.2773 9.27728C11.6987 11.8559 10.25 15.3533 10.25 19V32H7.75V19C7.75 14.6902 9.46205 10.557 12.5095 7.50951C15.557 4.46204 19.6902 2.75 24 2.75C28.3098 2.75 32.443 4.46204 35.4905 7.50951C38.5379 10.557 40.25 14.6902 40.25 19V38C40.25 38.8619 39.9076 39.6886 39.2981 40.2981C38.6886 40.9076 37.8619 41.25 37 41.25H31.8382V38.75H37C37.1989 38.75 37.3897 38.671 37.5303 38.5303C37.671 38.3897 37.75 38.1989 37.75 38V19C37.75 15.3533 36.3013 11.8559 33.7227 9.27728C31.1441 6.69865 27.6467 5.25 24 5.25Z"/>
<path fill-rule="evenodd" clip-rule="evenodd" d="M20 37.25C18.4812 37.25 17.25 38.4812 17.25 40C17.25 41.5188 18.4812 42.75 20 42.75H28C29.5188 42.75 30.75 41.5188 30.75 40C30.75 38.4812 29.5188 37.25 28 37.25H20ZM14.75 40C14.75 37.1005 17.1005 34.75 20 34.75H28C30.8995 34.75 33.25 37.1005 33.25 40C33.25 42.8995 30.8995 45.25 28 45.25H20C17.1005 45.25 14.75 42.8995 14.75 40Z"/>
</svg>
