<svg width="48" height="48" viewBox="0 0 48 48" xmlns="http://www.w3.org/2000/svg">
<path fill-rule="evenodd" clip-rule="evenodd" d="M2.75 10.5C2.75 8.70507 4.20507 7.25 6 7.25H17.0801C18.0289 7.25 18.9303 7.66458 19.5477 8.38493L24.3504 13.9881C24.4929 14.1543 24.7009 14.25 24.9199 14.25H42C43.7949 14.25 45.25 15.7051 45.25 17.5V37.5C45.25 39.2949 43.7949 40.75 42 40.75H6C4.20508 40.75 2.75 39.2949 2.75 37.5V10.5ZM6 9.75C5.58579 9.75 5.25 10.0858 5.25 10.5V37.5C5.25 37.9142 5.58579 38.25 6 38.25H42C42.4142 38.25 42.75 37.9142 42.75 37.5V17.5C42.75 17.0858 42.4142 16.75 42 16.75H24.9199C23.9711 16.75 23.0697 16.3354 22.4523 15.6151L17.6496 10.0119C17.5071 9.84567 17.2991 9.75 17.0801 9.75H6Z"/>
<path fill-rule="evenodd" clip-rule="evenodd" d="M10 14.25H25V16.75H10V14.25Z"/>
</svg>
